<?xml version="1.0" encoding="UTF-8" standalone="no"?>
<!-- Created with Inkscape (http://www.inkscape.org/) -->

<svg
   version="1.1"
   id="svg2295"
   xml:space="preserve"
   width="682.66669"
   height="682.66669"
   viewBox="0 0 682.66669 682.66669"
   xmlns="http://www.w3.org/2000/svg"
   xmlns:svg="http://www.w3.org/2000/svg"><defs
     id="defs2299"><clipPath
       clipPathUnits="userSpaceOnUse"
       id="clipPath2309"><path
         d="M 0,512 H 512 V 0 H 0 Z"
         id="path2307" /></clipPath></defs><g
     id="g2301"
     transform="matrix(1.3333333,0,0,-1.3333333,0,682.66667)"><g
       id="g2303"><g
         id="g2305"
         clip-path="url(#clipPath2309)"><g
           id="g2311"
           transform="translate(425.7061,425.7056)"><path
             d="M 0,0 C 0,0 -134.559,-7.28 -169.706,-42.427 -204.853,-7.28 -339.412,0 -339.412,0 c 0,0 7.281,-134.559 42.428,-169.706 -35.147,-35.147 -42.428,-169.706 -42.428,-169.706 0,0 134.559,7.281 169.706,42.428 C -134.559,-332.131 0,-339.412 0,-339.412 c 0,0 -7.28,134.559 -42.428,169.706 C -7.28,-134.559 0,0 0,0 Z"
             style="fill:none;stroke:#000000;stroke-width:30;stroke-linecap:round;stroke-linejoin:round;stroke-miterlimit:10;stroke-dasharray:none;stroke-opacity:1"
             id="path2313" /></g><g
           id="g2315"
           transform="translate(346,166)"><path
             d="m 0,0 c -49.706,0 -90,40.294 -90,90 0,49.706 40.294,90 90,90 C 49.706,180 151,90 151,90 151,90 49.706,0 0,0 Z"
             style="fill:none;stroke:#000000;stroke-width:30;stroke-linecap:round;stroke-linejoin:round;stroke-miterlimit:10;stroke-dasharray:none;stroke-opacity:1"
             id="path2317" /></g><g
           id="g2319"
           transform="translate(166,346)"><path
             d="m 0,0 c 49.706,0 90,-40.294 90,-90 0,-49.706 -40.294,-90 -90,-90 -49.706,0 -151,90 -151,90 0,0 101.294,90 151,90 z"
             style="fill:none;stroke:#000000;stroke-width:30;stroke-linecap:round;stroke-linejoin:round;stroke-miterlimit:10;stroke-dasharray:none;stroke-opacity:1"
             id="path2321" /></g><g
           id="g2323"
           transform="translate(166,166)"><path
             d="M 0,0 C 0,49.706 40.294,90 90,90 139.706,90 180,49.706 180,0 180,-49.706 90,-151 90,-151 90,-151 0,-49.706 0,0 Z"
             style="fill:none;stroke:#000000;stroke-width:30;stroke-linecap:round;stroke-linejoin:round;stroke-miterlimit:10;stroke-dasharray:none;stroke-opacity:1"
             id="path2325" /></g><g
           id="g2327"
           transform="translate(346,346)"><path
             d="m 0,0 c 0,-49.706 -40.294,-90 -90,-90 -49.706,0 -90,40.294 -90,90 0,49.706 90,151 90,151 C -90,151 0,49.706 0,0 Z"
             style="fill:none;stroke:#000000;stroke-width:30;stroke-linecap:round;stroke-linejoin:round;stroke-miterlimit:10;stroke-dasharray:none;stroke-opacity:1"
             id="path2329" /></g></g></g></g></svg>
